<?xml version="1.0" encoding="utf-8"?>
<!-- Generator: Adobe Illustrator 23.1.0, SVG Export Plug-In . SVG Version: 6.00 Build 0)  -->
<svg version="1.1" id="레이어_1" xmlns="http://www.w3.org/2000/svg" xmlns:xlink="http://www.w3.org/1999/xlink" x="0px"
	 y="0px" viewBox="0 0 19.25 19.25" style="enable-background:new 0 0 19.25 19.25;" xml:space="preserve">
<style type="text/css">
	.st0{fill:#081E50;}
</style>
<g id="icon_dashboard">
	<path id="합치기_8" class="st0" d="M15.64,19.25c-0.63,0.04-1.16-0.44-1.2-1.07c0-0.04,0-0.09,0-0.13V7.22
		c-0.04-0.63,0.44-1.16,1.07-1.2c0.04,0,0.09,0,0.13,0h2.41c0.63-0.04,1.16,0.44,1.2,1.07c0,0.04,0,0.09,0,0.13v10.83
		c0.04,0.63-0.44,1.16-1.07,1.2c-0.04,0-0.09,0-0.13,0L15.64,19.25z M8.42,19.25c-0.63,0.04-1.16-0.44-1.2-1.07
		c0-0.04,0-0.09,0-0.13V1.2C7.19,0.57,7.66,0.04,8.29,0c0.04,0,0.09,0,0.13,0h2.41c0.63-0.04,1.16,0.44,1.2,1.07
		c0,0.04,0,0.09,0,0.13v16.85c0.04,0.63-0.44,1.16-1.07,1.2c-0.04,0-0.09,0-0.13,0L8.42,19.25z M1.2,19.25
		c-0.63,0.04-1.16-0.44-1.2-1.07c0-0.04,0-0.09,0-0.13v-4.82c-0.04-0.63,0.44-1.16,1.07-1.2c0.04,0,0.09,0,0.13,0h2.41
		c0.63-0.04,1.16,0.44,1.2,1.07c0,0.04,0,0.09,0,0.13v4.81c0.04,0.63-0.44,1.16-1.07,1.2c-0.04,0-0.09,0-0.13,0L1.2,19.25z"/>
</g>
</svg>
