<?xml version="1.0" encoding="utf-8"?>
<!-- Generator: Adobe Illustrator 23.1.0, SVG Export Plug-In . SVG Version: 6.00 Build 0)  -->
<svg version="1.1" id="레이어_1" xmlns="http://www.w3.org/2000/svg" xmlns:xlink="http://www.w3.org/1999/xlink" x="0px"
	 y="0px" viewBox="0 0 14 14.13" style="enable-background:new 0 0 14 14.13;" xml:space="preserve">
<style type="text/css">
	.st0{fill:#707070;}
</style>
<path class="st0" d="M13.94,2.91C13.98,2.82,14,2.71,14,2.61c0,0,0,0,0,0V0.82C14,0.37,13.63,0,13.18,0H0.82C0.37,0,0,0.37,0,0.82
	v1.78c0,0.05,0.02,0.09,0.03,0.13C0.04,2.79,0.04,2.84,0.06,2.9C0.08,2.95,0.12,3,0.15,3.05c0.02,0.03,0.03,0.07,0.06,0.1l5.25,5.85
	v4.3c0,0,0,0,0,0c0,0.45,0.37,0.82,0.82,0.82c0.17,0,0.34-0.05,0.48-0.15l1.47-1.05c0.22-0.15,0.34-0.4,0.34-0.67v-3.2l5.22-5.91
	c0.04-0.04,0.06-0.1,0.09-0.15C13.9,2.97,13.92,2.95,13.94,2.91z M7.13,8.2C7.09,8.25,7.06,8.3,7.03,8.35
	C6.99,8.28,6.95,8.21,6.89,8.14L2.66,3.43h8.69L7.13,8.2z"/>
</svg>
