<?xml version="1.0" encoding="utf-8"?>
<!-- Generator: Adobe Illustrator 23.1.0, SVG Export Plug-In . SVG Version: 6.00 Build 0)  -->
<svg version="1.1" id="레이어_1" xmlns="http://www.w3.org/2000/svg" xmlns:xlink="http://www.w3.org/1999/xlink" x="0px"
	 y="0px" viewBox="0 0 23 23" style="enable-background:new 0 0 23 23;" xml:space="preserve">
<style type="text/css">
	.st0{clip-path:url(#SVGID_2_);}
	.st1{fill:#C2D8F1;}
</style>
<g>
	<defs>
		<rect id="SVGID_1_" x="-0.03" y="0.03" width="23" height="23"/>
	</defs>
	<clipPath id="SVGID_2_">
		<use xlink:href="#SVGID_1_"  style="overflow:visible;"/>
	</clipPath>
	<g id="icon_home" class="st0">
		<path id="패스_357" class="st1" d="M22.37,7.49L12.3,0.3c-0.5-0.36-1.17-0.36-1.67,0L0.57,7.49C-0.07,7.96-0.2,8.86,0.28,9.5
			c0.46,0.62,1.33,0.76,1.96,0.33l0.6-0.43v12.2c0,0.79,0.65,1.44,1.44,1.44c0,0,0,0,0,0h14.38c0.79,0,1.44-0.64,1.44-1.44l0,0V9.4
			c0.39,0.39,0.89,0.63,1.44,0.7c0.79,0,1.44-0.64,1.44-1.43C22.98,8.2,22.75,7.76,22.37,7.49z M17.22,20.16h-2.87v-4.31
			c0-1.59-1.29-2.88-2.88-2.88s-2.88,1.29-2.88,2.88v4.31H5.72V7.34l5.75-4.11l5.75,4.11V20.16z"/>
	</g>
</g>
</svg>
