<?xml version="1.0" encoding="utf-8"?>
<!-- Generator: Adobe Illustrator 23.1.0, SVG Export Plug-In . SVG Version: 6.00 Build 0)  -->
<svg version="1.1" id="레이어_1" xmlns="http://www.w3.org/2000/svg" xmlns:xlink="http://www.w3.org/1999/xlink" x="0px"
	 y="0px" viewBox="0 0 19.24 24" style="enable-background:new 0 0 19.24 24;" xml:space="preserve">
<style type="text/css">
	.st0{fill:#081E50;}
</style>
<g id="구성_요소_23_11">
	<path id="패스_390" class="st0" d="M12.15,2.48h-0.12V1.9h-0.01c-0.31-1.32-1.63-2.14-2.95-1.83C8.16,0.28,7.45,0.99,7.24,1.9
		H7.23v0.58H7.11c-0.36,0-0.66,0.29-0.66,0.66v1.83c0,0.36,0.3,0.66,0.66,0.66h5.04c0.36,0,0.66-0.3,0.66-0.66V3.14
		C12.81,2.77,12.51,2.48,12.15,2.48C12.15,2.48,12.15,2.48,12.15,2.48z M10.4,3.1H8.86V1.55h1.55L10.4,3.1z"/>
	<path id="패스_391" class="st0" d="M19.12,4.29c-0.27-0.65-0.91-1.07-1.62-1.07h-3.23v2.03c0,0.93-0.75,1.68-1.68,1.68l0,0H6.68
		c-0.93,0-1.68-0.75-1.68-1.68c0,0,0,0,0,0V3.21H1.76C0.79,3.21,0,4,0,4.97c0,0,0,0,0,0v17.29c0,0.97,0.79,1.76,1.76,1.76l0,0H17.5
		c0.97,0,1.76-0.79,1.76-1.76v0V4.97C19.26,4.74,19.21,4.5,19.12,4.29z M4.33,19.23c0,0.25-0.21,0.46-0.46,0.46H3.41
		c-0.25,0-0.46-0.21-0.46-0.46v-0.7c0-0.25,0.21-0.46,0.46-0.46h0.46c0.25,0,0.46,0.21,0.46,0.46V19.23z M4.33,14.83
		c0,0.25-0.21,0.46-0.46,0.46H3.41c-0.25,0-0.46-0.21-0.46-0.46v-0.7c0-0.25,0.21-0.46,0.46-0.46h0.46c0.25,0,0.46,0.21,0.46,0.46
		V14.83z M4.33,10.44c0,0.25-0.21,0.46-0.46,0.46H3.41c-0.25,0-0.46-0.21-0.46-0.46v-0.7c0-0.25,0.21-0.46,0.46-0.46h0.46
		c0.25,0,0.46,0.21,0.46,0.46V10.44z M16.31,19.26c0,0.25-0.21,0.46-0.46,0.46H5.71c-0.25,0-0.46-0.21-0.46-0.46v-0.7
		c0-0.25,0.21-0.46,0.46-0.46h10.13c0.25,0,0.46,0.21,0.46,0.46L16.31,19.26z M16.31,14.86c0,0.25-0.21,0.46-0.46,0.46H5.71
		c-0.25,0-0.46-0.21-0.46-0.46v-0.68c0-0.25,0.21-0.46,0.46-0.46h10.13c0.25,0,0.46,0.21,0.46,0.46L16.31,14.86z M16.31,10.46
		c0,0.25-0.21,0.46-0.46,0.46H5.71c-0.25,0-0.46-0.21-0.46-0.46v-0.7c0-0.25,0.21-0.46,0.46-0.46h10.13c0.25,0,0.46,0.21,0.46,0.46
		L16.31,10.46z"/>
</g>
</svg>
