<?xml version="1.0" encoding="utf-8"?>
<!-- Generator: Adobe Illustrator 23.1.0, SVG Export Plug-In . SVG Version: 6.00 Build 0)  -->
<svg version="1.1" id="레이어_1" xmlns="http://www.w3.org/2000/svg" xmlns:xlink="http://www.w3.org/1999/xlink" x="0px"
	 y="0px" viewBox="0 0 24.88 24.89" style="enable-background:new 0 0 24.88 24.89;" xml:space="preserve">
<style type="text/css">
	.st0{fill:#6FA4D8;}
</style>
<path id="패스_447" class="st0" d="M12.44,0C5.57,0,0,5.57,0,12.44v0c0,6.87,5.57,12.45,12.45,12.45l0,0
	c6.87,0,12.45-5.57,12.45-12.44v0C24.89,5.57,19.32,0,12.44,0L12.44,0z M19.01,17.98c0,1.77-3.38,2.17-6.55,2.17
	s-6.59-0.4-6.59-2.17V17.5c0-1.3,2.34-2.61,4.33-3.33c0.14-0.05,0.83-0.43,0.45-1.43c-1.08-1.15-1.7-2.66-1.73-4.25
	c-0.17-1.89,1.23-3.57,3.12-3.74c0.13-0.01,0.27-0.02,0.41-0.01c1.9-0.06,3.49,1.44,3.55,3.35c0,0.13,0,0.27-0.01,0.4
	c-0.03,1.58-0.65,3.09-1.73,4.24l0,0c-0.38,1.14,0.23,1.41,0.32,1.45c2.09,0.69,4.44,1.99,4.44,3.33L19.01,17.98z"/>
</svg>
