<?xml version="1.0" encoding="utf-8"?>
<!-- Generator: Adobe Illustrator 23.1.0, SVG Export Plug-In . SVG Version: 6.00 Build 0)  -->
<svg version="1.1" id="레이어_1" xmlns="http://www.w3.org/2000/svg" xmlns:xlink="http://www.w3.org/1999/xlink" x="0px"
	 y="0px" viewBox="0 0 21 21" style="enable-background:new 0 0 21 21;" xml:space="preserve">
<style type="text/css">
	.st0{fill:#FFFFFF;}
	.st1{fill:#A8A8A8;}
</style>
<g>
	<g id="Selectbox.Filter" transform="translate(1827 152)">
		<g transform="matrix(1, 0, 0, 1, -4.5, -2.5)">
			<g id="Selectbox.BG-2" transform="translate(4.5 2.5)">
				<g>
					<path class="st0" d="M-1823-152h13c2.21,0,4,1.79,4,4v13c0,2.21-1.79,4-4,4h-13c-2.21,0-4-1.79-4-4v-13
						C-1827-150.21-1825.21-152-1823-152z"/>
				</g>
				<g>
					<path class="st1" d="M-1810-131h-13c-2.21,0-4-1.79-4-4v-13c0-2.21,1.79-4,4-4h13c2.21,0,4,1.79,4,4v13
						C-1806-132.79-1807.79-131-1810-131z M-1823-151c-1.65,0-3,1.35-3,3v13c0,1.65,1.35,3,3,3h13c1.65,0,3-1.35,3-3v-13
						c0-1.65-1.35-3-3-3H-1823z"/>
				</g>
			</g>
		</g>
	</g>
	<g id="그룹_295" transform="translate(1830.281 157.906)">
		<rect id="사각형_734" x="-1827" y="-152" class="st1" width="14.07" height="1.26"/>
		<rect id="사각형_735" x="-1827" y="-147.98" class="st1" width="14.07" height="1.26"/>
		<rect id="사각형_736" x="-1827" y="-143.96" class="st1" width="14.07" height="1.26"/>
	</g>
</g>
</svg>
