<?xml version="1.0" encoding="utf-8"?>
<!-- Generator: Adobe Illustrator 23.1.0, SVG Export Plug-In . SVG Version: 6.00 Build 0)  -->
<svg version="1.1" id="레이어_1" xmlns="http://www.w3.org/2000/svg" xmlns:xlink="http://www.w3.org/1999/xlink" x="0px"
	 y="0px" viewBox="0 0 16 16" style="enable-background:new 0 0 16 16;" xml:space="preserve">
<style type="text/css">
	.st0{clip-path:url(#SVGID_2_);}
	.st1{fill:none;}
	.st2{fill-rule:evenodd;clip-rule:evenodd;fill:#656565;}
</style>
<g>
	<defs>
		<rect id="SVGID_1_" width="16" height="16"/>
	</defs>
	<clipPath id="SVGID_2_">
		<use xlink:href="#SVGID_1_"  style="overflow:visible;"/>
	</clipPath>
	<g id="Icon_Calendar" class="st0">
		<rect id="사각형_557" class="st1" width="16" height="16"/>
		<path id="패스_149" class="st2" d="M2,5v9h12V5H2z M13,2h2c0.52-0.03,0.97,0.37,1,0.89c0,0.04,0,0.08,0,0.11v12
			c0.03,0.52-0.37,0.97-0.89,1c-0.04,0-0.08,0-0.11,0H1c-0.52,0.03-0.97-0.37-1-0.89c0-0.04,0-0.08,0-0.11V3
			c-0.03-0.52,0.37-0.97,0.89-1C0.92,2,0.96,2,1,2h2V1C2.97,0.48,3.37,0.03,3.89,0C3.92,0,3.96,0,4,0c0.52-0.03,0.97,0.37,1,0.89
			C5,0.92,5,0.96,5,1v1h6V1c0-0.55,0.45-1,1-1s1,0.45,1,1V2z M12,12h-2v-2h2V12z M9,12H7v-2h2V12z M12,9h-2V7h2V9z M9,9H7V7h2V9z
			 M6,12H4v-2h2V12z"/>
	</g>
</g>
</svg>
