<?xml version="1.0" encoding="utf-8"?>
<!-- Generator: Adobe Illustrator 23.1.0, SVG Export Plug-In . SVG Version: 6.00 Build 0)  -->
<svg version="1.1" id="레이어_1" xmlns="http://www.w3.org/2000/svg" xmlns:xlink="http://www.w3.org/1999/xlink" x="0px"
	 y="0px" viewBox="0 0 19.58 19.5" style="enable-background:new 0 0 19.58 19.5;" xml:space="preserve">
<style type="text/css">
	.st0{clip-path:url(#SVGID_2_);}
	.st1{fill:#C2D8F1;}
</style>
<g>
	<defs>
		<rect id="SVGID_1_" x="0.16" y="0.13" width="19.25" height="19.25"/>
	</defs>
	<clipPath id="SVGID_2_">
		<use xlink:href="#SVGID_1_"  style="overflow:visible;"/>
	</clipPath>
	<g id="icon_dashboard" class="st0">
		<path id="합치기_8" class="st1" d="M15.81,19.38c-0.63,0.04-1.16-0.44-1.2-1.07c0-0.04,0-0.09,0-0.13V7.34
			c-0.04-0.63,0.44-1.16,1.07-1.2c0.04,0,0.09,0,0.13,0h2.41c0.63-0.04,1.16,0.44,1.2,1.07c0,0.04,0,0.09,0,0.13v10.83
			c0.04,0.63-0.44,1.16-1.07,1.2c-0.04,0-0.09,0-0.13,0L15.81,19.38z M8.59,19.38c-0.63,0.04-1.16-0.44-1.2-1.07
			c0-0.04,0-0.09,0-0.13V1.33C7.35,0.7,7.83,0.16,8.46,0.13c0.04,0,0.09,0,0.13,0h2.41c0.63-0.04,1.16,0.44,1.2,1.07
			c0,0.04,0,0.09,0,0.13v16.85c0.04,0.63-0.44,1.16-1.07,1.2c-0.04,0-0.09,0-0.13,0L8.59,19.38z M1.37,19.38
			c-0.63,0.04-1.16-0.44-1.2-1.07c0-0.04,0-0.09,0-0.13v-4.81c-0.04-0.63,0.44-1.16,1.07-1.2c0.04,0,0.09,0,0.13,0h2.41
			c0.63-0.04,1.16,0.44,1.2,1.07c0,0.04,0,0.09,0,0.13v4.81c0.04,0.63-0.44,1.16-1.07,1.2c-0.04,0-0.09,0-0.13,0L1.37,19.38z"/>
	</g>
</g>
</svg>
