<?xml version="1.0" encoding="utf-8"?>
<!-- Generator: Adobe Illustrator 23.1.0, SVG Export Plug-In . SVG Version: 6.00 Build 0)  -->
<svg version="1.1" id="레이어_1" xmlns="http://www.w3.org/2000/svg" xmlns:xlink="http://www.w3.org/1999/xlink" x="0px"
	 y="0px" viewBox="0 0 25 22.32" style="enable-background:new 0 0 25 22.32;" xml:space="preserve">
<style type="text/css">
	.st0{clip-path:url(#SVGID_2_);}
	.st1{fill:#C2D8F1;}
</style>
<g>
	<defs>
		<rect id="SVGID_1_" width="25" height="22.32"/>
	</defs>
	<clipPath id="SVGID_2_">
		<use xlink:href="#SVGID_1_"  style="overflow:visible;"/>
	</clipPath>
	<g id="구성_요소_25_2" class="st0">
		<path id="패스_401" class="st1" d="M4.58,12.51V8.27l2.54-2.65L10.64,10l2.63-3.48l3.55,0.88l4-3.48v4.47l-4.02,3.25l-3.53-0.81
			l-2.63,3.3l-3.48-4.1L4.58,12.51z"/>
		<path id="패스_402" class="st1" d="M4.58,14.34l2.56-2.49l3.5,4.24l2.97-3.71l3.18,0.78l4.02-3.11v7.77H4.58V14.34z"/>
		<g id="그룹_232" transform="translate(22.121 18.226)">
			<path id="패스_403" class="st1" d="M0.11,4.04c-0.01,0-0.02,0-0.02-0.01C0.07,4.02,0.05,4,0.05,3.98V0.11
				c0-0.02,0.01-0.04,0.03-0.05c0.01,0,0.02-0.01,0.02-0.01c0.01,0,0.02,0,0.03,0.01L2.8,2c0.01,0.01,0.02,0.03,0.02,0.04
				c0,0.02-0.01,0.03-0.02,0.04L0.14,4.02C0.13,4.03,0.12,4.03,0.11,4.04z"/>
			<path id="패스_404" class="st1" d="M0.11,0.11l0.8,0.58l0.17,0.12l1.69,1.23L0.11,3.98V0.11 M0.11,0C0.09,0,0.08,0,0.06,0.01
				C0.02,0.03,0,0.07,0,0.11v3.87c0,0.04,0.02,0.08,0.06,0.1c0.02,0.01,0.03,0.01,0.05,0.01c0.02,0,0.05-0.01,0.06-0.02l2.66-1.93
				c0.03-0.02,0.04-0.05,0.05-0.09c0-0.03-0.02-0.07-0.05-0.09L1.14,0.73L0.97,0.6l-0.8-0.58C0.15,0.01,0.13,0,0.11,0L0.11,0z"/>
		</g>
		<g id="그룹_233" transform="translate(1.512 1.832)">
			<path id="패스_405" class="st1" d="M21.45,18.97H0.54c-0.3,0-0.54-0.24-0.54-0.54V0.54C0,0.24,0.24,0,0.54,0
				c0.3,0,0.54,0.24,0.54,0.54V17.9h20.38c0.3,0,0.54,0.24,0.54,0.54C21.99,18.73,21.75,18.97,21.45,18.97L21.45,18.97z"/>
		</g>
		<g id="그룹_234">
			<path id="패스_406" class="st1" d="M0.11,2.82c-0.02,0-0.04-0.01-0.05-0.03c-0.01-0.02-0.01-0.04,0-0.06L2,0.08
				c0.01-0.01,0.03-0.02,0.04-0.02l0,0c0.02,0,0.03,0.01,0.04,0.02l1.93,2.66c0.01,0.02,0.01,0.04,0,0.06
				C4.01,2.81,3.99,2.82,3.97,2.82H0.11z"/>
			<path id="패스_407" class="st1" d="M2.04,0.11l1.93,2.66H0.11l0.58-0.8L0.81,1.8L2.04,0.11 M2.04,0C2.01,0,1.98,0.02,1.96,0.04
				L0.72,1.74L0.6,1.91l-0.58,0.8c-0.02,0.03-0.03,0.08-0.01,0.11c0.02,0.04,0.06,0.06,0.1,0.06h3.87c0.04,0,0.08-0.02,0.1-0.06
				C4.1,2.78,4.1,2.74,4.07,2.71L2.14,0.05C2.12,0.02,2.08,0,2.04,0L2.04,0z"/>
		</g>
	</g>
</g>
</svg>
