<svg id="그룹_428" data-name="그룹 428" xmlns="http://www.w3.org/2000/svg" xmlns:xlink="http://www.w3.org/1999/xlink" width="18.651" height="18.241" viewBox="0 0 18.651 18.241">
  <defs>
    <clipPath id="clip-path">
      <rect id="사각형_787" data-name="사각형 787" width="18.651" height="18.241" transform="translate(0 0)" fill="#747474"/>
    </clipPath>
  </defs>
  <g id="그룹_427" data-name="그룹 427" clip-path="url(#clip-path)">
    <path id="패스_503" data-name="패스 503" d="M14.458,7.651H12.416V1.834A1.76,1.76,0,0,0,10.562,0H8.09A1.761,1.761,0,0,0,6.235,1.834V7.651H4.222c-.872,0-1.043.168-.3,1.009l4.06,4.569c1.36,1.531,1.344,1.535,2.706,0L14.752,8.66c.746-.841.493-1.009-.294-1.009" fill="#747474"/>
    <path id="패스_504" data-name="패스 504" d="M16.694,12.8V15.87a.414.414,0,0,1-.413.412H2.37a.412.412,0,0,1-.412-.412V12.8H0V15.87a2.373,2.373,0,0,0,2.37,2.371H16.281a2.373,2.373,0,0,0,2.37-2.371V12.8Z" fill="#747474"/>
  </g>
</svg>
