<svg xmlns="http://www.w3.org/2000/svg" xmlns:xlink="http://www.w3.org/1999/xlink" width="18.246" height="21.398" viewBox="0 0 18.246 21.398">
  <defs>
    <clipPath id="clip-path">
      <rect id="사각형_772" data-name="사각형 772" width="18.246" height="21.398" transform="translate(0 0)" fill="#081e50"/>
    </clipPath>
  </defs>
  <g id="그룹_420" data-name="그룹 420" transform="translate(0 0)">
    <g id="그룹_392" data-name="그룹 392" clip-path="url(#clip-path)">
      <path id="패스_494" data-name="패스 494" d="M12.087,13.094c-.133-.043-.968-.42-.446-2.007h-.007a8.857,8.857,0,0,0,2.4-5.881C14.035,1.791,11.764,0,9.124,0s-4.9,1.791-4.9,5.206a8.832,8.832,0,0,0,2.4,5.895c.534,1.4-.421,1.919-.621,1.993C3.244,14.094,0,15.916,0,17.716v.673C0,20.841,4.752,21.4,9.15,21.4s9.1-.557,9.1-3.009v-.673c0-1.854-3.259-3.662-6.16-4.622" fill="#081e50"/>
    </g>
  </g>
</svg>
