<svg id="구성_요소_23_22" data-name="구성 요소 23 – 22" xmlns="http://www.w3.org/2000/svg" width="19.25" height="24.014" viewBox="0 0 19.25 24.014">
  <path id="패스_390" data-name="패스 390" d="M209.388,40.322h-.116v-.581h-.011a2.454,2.454,0,0,0-4.78,0h-.011v.581h-.116a.659.659,0,0,0-.659.658v1.833a.659.659,0,0,0,.659.659h5.035a.659.659,0,0,0,.659-.659V40.98A.658.658,0,0,0,209.388,40.322Zm-1.743.62H206.1V39.392h1.549Z" transform="translate(-197.246 -37.843)" fill="#c3ddfc"/>
  <path id="패스_391" data-name="패스 391" d="M192.316,54.116a1.757,1.757,0,0,0-1.618-1.073h-3.233v2.03a1.682,1.682,0,0,1-1.682,1.682h-5.906a1.682,1.682,0,0,1-1.682-1.682v-2.03h-3.233A1.757,1.757,0,0,0,173.2,54.8V72.086a1.757,1.757,0,0,0,1.757,1.757H190.7a1.757,1.757,0,0,0,1.757-1.757V54.8A1.747,1.747,0,0,0,192.316,54.116ZM177.532,69.062a.462.462,0,0,1-.461.46h-.461a.462.462,0,0,1-.461-.46v-.7a.462.462,0,0,1,.461-.461h.461a.462.462,0,0,1,.461.461Zm0-4.4a.462.462,0,0,1-.461.461h-.461a.462.462,0,0,1-.461-.461v-.7a.462.462,0,0,1,.461-.461h.461a.462.462,0,0,1,.461.461Zm0-4.395a.462.462,0,0,1-.461.461h-.461a.462.462,0,0,1-.461-.461v-.7a.462.462,0,0,1,.461-.461h.461a.462.462,0,0,1,.461.461Zm11.976,8.817a.461.461,0,0,1-.461.461H178.914a.462.462,0,0,1-.461-.461v-.7a.462.462,0,0,1,.461-.461h10.134a.461.461,0,0,1,.461.461Zm0-4.4a.461.461,0,0,1-.461.461H178.914a.462.462,0,0,1-.461-.461V64a.462.462,0,0,1,.461-.461h10.134a.462.462,0,0,1,.461.461Zm0-4.395a.462.462,0,0,1-.461.461H178.914a.462.462,0,0,1-.461-.461v-.7a.462.462,0,0,1,.461-.461h10.134a.461.461,0,0,1,.461.461Z" transform="translate(-173.204 -49.828)" fill="#c3ddfc"/>
</svg>
