<svg xmlns="http://www.w3.org/2000/svg" width="19.25" height="19.25" viewBox="0 0 19.25 19.25">
  <path id="icon_dashboard" d="M15.641,19.25a1.137,1.137,0,0,1-1.2-1.2V7.219a1.137,1.137,0,0,1,1.2-1.2h2.406a1.137,1.137,0,0,1,1.2,1.2V18.047a1.137,1.137,0,0,1-1.2,1.2Zm-7.219,0a1.136,1.136,0,0,1-1.2-1.2V1.2A1.137,1.137,0,0,1,8.422,0h2.406a1.137,1.137,0,0,1,1.2,1.2V18.047a1.136,1.136,0,0,1-1.2,1.2Zm-7.219,0a1.137,1.137,0,0,1-1.2-1.2V13.235a1.138,1.138,0,0,1,1.2-1.2H3.609a1.138,1.138,0,0,1,1.2,1.2v4.812a1.137,1.137,0,0,1-1.2,1.2Z" fill="#c3ddfc"/>
</svg>
