<svg xmlns="http://www.w3.org/2000/svg" xmlns:xlink="http://www.w3.org/1999/xlink" width="25" height="22.315" viewBox="0 0 25 22.315">
  <defs>
    <clipPath id="clip-path">
      <rect width="25" height="22.315" fill="none"/>
    </clipPath>
  </defs>
  <g id="구성_요소_25_17" data-name="구성 요소 25 – 17" clip-path="url(#clip-path)">
    <path id="패스_401" data-name="패스 401" d="M267.676-180.824v-4.241l2.535-2.65,3.526,4.379,2.628-3.481,3.55.876,4-3.481v4.471l-4.023,3.25-3.527-.806-2.628,3.3-3.48-4.1Z" transform="translate(-263.095 193.339)" fill="#081e50"/>
    <path id="패스_402" data-name="패스 402" d="M267.676-145.521l2.558-2.489,3.5,4.241,2.973-3.711,3.181.784,4.023-3.112v7.768H267.676Z" transform="translate(-263.095 159.857)" fill="#081e50"/>
    <g id="그룹_232" data-name="그룹 232" transform="translate(22.121 18.226)">
      <path id="패스_403" data-name="패스 403" d="M381.415-92.643a.056.056,0,0,1-.025-.006.055.055,0,0,1-.03-.049v-3.871a.055.055,0,0,1,.03-.049.056.056,0,0,1,.025-.006.054.054,0,0,1,.032.011l2.66,1.936a.055.055,0,0,1,.023.044.055.055,0,0,1-.023.044l-2.66,1.935A.054.054,0,0,1,381.415-92.643Z" transform="translate(-381.306 96.678)" fill="#081e50"/>
      <path id="패스_404" data-name="패스 404" d="M381.117-96.867l.8.583.168.122,1.692,1.231L381.117-93v-3.871m0-.109a.11.11,0,0,0-.049.012.109.109,0,0,0-.06.1V-93a.109.109,0,0,0,.06.1.109.109,0,0,0,.049.012.11.11,0,0,0,.064-.021l2.661-1.935a.109.109,0,0,0,.045-.088.109.109,0,0,0-.045-.088L382.15-96.25l-.169-.122-.8-.582a.109.109,0,0,0-.064-.021Z" transform="translate(-381.008 96.976)" fill="#081e50"/>
    </g>
    <g id="그룹_233" data-name="그룹 233" transform="translate(1.512 1.832)">
      <path id="패스_405" data-name="패스 405" d="M269.3-183.924H248.387a.538.538,0,0,1-.538-.538v-17.9a.538.538,0,0,1,.538-.538.539.539,0,0,1,.538.538V-185H269.3a.538.538,0,0,1,.538.538A.538.538,0,0,1,269.3-183.924Z" transform="translate(-247.849 202.898)" fill="#081e50"/>
    </g>
    <g id="그룹_234" data-name="그룹 234">
      <path id="패스_406" data-name="패스 406" d="M238.484-211.614a.055.055,0,0,1-.049-.03.055.055,0,0,1,0-.057l1.936-2.66a.055.055,0,0,1,.044-.022h0a.055.055,0,0,1,.044.022l1.935,2.66a.055.055,0,0,1,0,.057.055.055,0,0,1-.049.03Z" transform="translate(-238.375 214.439)" fill="#081e50"/>
      <path id="패스_407" data-name="패스 407" d="M240.122-214.628l1.935,2.66h-3.871l.583-.8.122-.169,1.231-1.691m0-.109a.109.109,0,0,0-.088.045L238.8-213l-.122.169-.582.8a.109.109,0,0,0-.009.114.109.109,0,0,0,.1.06h3.871a.109.109,0,0,0,.1-.06.109.109,0,0,0-.009-.114l-1.935-2.66a.109.109,0,0,0-.088-.045Z" transform="translate(-238.077 214.737)" fill="#081e50"/>
    </g>
  </g>
</svg>
