<svg xmlns="http://www.w3.org/2000/svg" xmlns:xlink="http://www.w3.org/1999/xlink" width="13.655" height="26.56" viewBox="0 0 13.655 26.56">
  <defs>
    <clipPath id="clip-path">
      <rect id="사각형_771" data-name="사각형 771" width="13.655" height="26.56" fill="#081e50"/>
    </clipPath>
  </defs>
  <g id="그룹_419" data-name="그룹 419" transform="translate(0 0)">
    <g id="그룹_390" data-name="그룹 390" transform="translate(0 0)" clip-path="url(#clip-path)">
      <path id="패스_492" data-name="패스 492" d="M7.325,16.567V7.377H5.508v9.19a2.269,2.269,0,0,0-1.185.906,2.565,2.565,0,0,0-.435,1.45,2.441,2.441,0,0,0,.73,1.786,2.407,2.407,0,0,0,1.777.736,2.507,2.507,0,0,0,2.55-2.522,2.292,2.292,0,0,0-1.62-2.355" transform="translate(0.411 0.78)" fill="#081e50"/>
      <path id="패스_493" data-name="패스 493" d="M12.809,16.572a7.036,7.036,0,0,0-1.758-2.115V4.281h0V4.118h0A4.279,4.279,0,0,0,9.21.742a4.2,4.2,0,0,0-4.767,0A4.279,4.279,0,0,0,2.6,4.118h0V14.447A6.528,6.528,0,0,0,0,19.786,6.474,6.474,0,0,0,2.024,24.62,6.734,6.734,0,0,0,6.852,26.56a6.6,6.6,0,0,0,4.811-1.975,6.687,6.687,0,0,0,1.146-8.013M9.2,15.413l.406.275a5.08,5.08,0,0,1,1.583,1.779,4.836,4.836,0,0,1-.832,5.806A4.747,4.747,0,0,1,6.852,24.71a4.879,4.879,0,0,1-3.544-1.422,4.627,4.627,0,0,1-1.457-3.5,4.8,4.8,0,0,1,.561-2.351,4.906,4.906,0,0,1,1.627-1.742l.412-.274V5.84h0V4.118a2.379,2.379,0,0,1,4.749,0v11.3Z" transform="translate(0 0)" fill="#081e50"/>
    </g>
  </g>
</svg>
