<svg xmlns="http://www.w3.org/2000/svg" width="25.289" height="22.696" viewBox="0 0 25.289 22.696">
  <path id="패스_503" data-name="패스 503" d="M1282.143-90.243l-11.206-8.649a1.439,1.439,0,0,0-1.758,0l-11.206,8.649a1.438,1.438,0,0,0-.26,2.017,1.438,1.438,0,0,0,2.018.26l2.249-1.736v11.394a1.812,1.812,0,0,0,1.812,1.812h12.531a1.812,1.812,0,0,0,1.812-1.812V-89.7l2.25,1.736a1.433,1.433,0,0,0,.878.3,1.434,1.434,0,0,0,1.14-.56A1.438,1.438,0,0,0,1282.143-90.243Zm-8.859,10.89h-6.452v-4.831h0a3.226,3.226,0,0,1,3.226-3.225,3.226,3.226,0,0,1,3.225,3.226Z" transform="translate(-1257.414 99.192)" fill="#c3ddfc"/>
</svg>
