<svg xmlns="http://www.w3.org/2000/svg" xmlns:xlink="http://www.w3.org/1999/xlink" width="20.76" height="18.915" viewBox="0 0 20.76 18.915">
  <defs>
    <clipPath id="clip-path">
      <rect id="사각형_769" data-name="사각형 769" width="20.76" height="18.915" transform="translate(0 0)" fill="none"/>
    </clipPath>
  </defs>
  <g id="그룹_412" data-name="그룹 412" transform="translate(0 0)">
    <g id="그룹_386" data-name="그룹 386" clip-path="url(#clip-path)">
      <path id="패스_489" data-name="패스 489" d="M19.441,0H1.318A1.318,1.318,0,0,0,0,1.318v13.9a1.318,1.318,0,0,0,1.319,1.319H2.857l1.777,1.778a2.063,2.063,0,0,0,1.482.6,2.122,2.122,0,0,0,1.509-.657l1.643-1.724H19.441a1.32,1.32,0,0,0,1.319-1.319V1.318A1.319,1.319,0,0,0,19.441,0M10.235,12.9H4.866a.985.985,0,1,1,0-1.969h5.369a.985.985,0,0,1,0,1.969m5.659-3.866H4.866a.984.984,0,1,1,0-1.968H15.894a.984.984,0,1,1,0,1.968m0-3.865H4.866a.984.984,0,1,1,0-1.968H15.894a.984.984,0,1,1,0,1.968" fill="#c2d8f1"/>
    </g>
  </g>
</svg>
