<svg xmlns="http://www.w3.org/2000/svg" xmlns:xlink="http://www.w3.org/1999/xlink" width="22.054" height="22.059" viewBox="0 0 22.054 22.059">
  <defs>
    <clipPath id="clip-path">
      <rect id="사각형_768" data-name="사각형 768" width="22.054" height="22.059" transform="translate(0 0)" fill="none"/>
    </clipPath>
  </defs>
  <g id="그룹_411" data-name="그룹 411" transform="translate(0 0)">
    <g id="그룹_384" data-name="그룹 384" clip-path="url(#clip-path)">
      <path id="패스_488" data-name="패스 488" d="M21.581,2.2l0-.042c-.013-.1-.024-.184-.035-.274s-.021-.165-.031-.234C21.368.668,21.2.634,19.887.476,17.311.167,12.293-.279,11.781.233L.519,11.495a1.782,1.782,0,0,0,0,2.514l7.529,7.529a1.774,1.774,0,0,0,2.51,0L21.82,10.276c.511-.51.07-5.49-.239-8.074M8.956,16.918a.764.764,0,0,1-1.081,0L3.993,13.035a.764.764,0,0,1,1.08-1.081l3.883,3.883a.765.765,0,0,1,0,1.081m1.279-3.883a.764.764,0,0,1-1.081,0l-2.6-2.6a.764.764,0,0,1,1.08-1.08l2.6,2.6a.765.765,0,0,1,0,1.081m5.162,0a.764.764,0,0,1-1.081,0L9.154,7.873a.764.764,0,0,1,1.081-1.08L15.4,11.954a.765.765,0,0,1,0,1.081M18.46,6.529h0a2.162,2.162,0,0,1-.519.25c-.027.008-.053.017-.08.024a2.106,2.106,0,0,1-2.636-2.61c.011-.039.023-.077.036-.115a2.132,2.132,0,0,1,.241-.5v0a2.128,2.128,0,0,1,1.767-.94,2.1,2.1,0,0,1,1.283.448,2.05,2.05,0,0,1,.231.205,2.02,2.02,0,0,1,.138.154A2.107,2.107,0,0,1,19.4,4.766a2.128,2.128,0,0,1-.935,1.763" fill="#c2d8f1"/>
    </g>
  </g>
</svg>
